# xmcd
#
# Track frame offsets:
#	150
#	13283
#	25811
#	37761
#	50515
#	62024
#	75060
#	88292
#	101927
#	113063
#	126191
#	137549
#	151493
#	164181
#	175940
#	189994
#	203028
#	216296
#	229625
#	242723
#	255266
#	267200
#	279086
#	291767
#	303908
#
# Disc length: 4185 seconds
#
# Revision: 0
# Processed by: cddbd v1.5.2PL0 Copyright (c) Steve Scherf et al.
# Submitted via: EasyCDDAExtractor 10.0.5.1
#
DISCID=53105719
DTITLE=The Blue Sky Boys - The Blue Sky Boys - Disc E (NYC, Atlanta GA, and Nash
DTITLE=ville, TN (1947-50)
DYEAR=2007
DGENRE=Country
TTITLE0=Come To The Saviour
TTITLE1=Garden In The Sky
TTITLE2=There's Been A Change
TTITLE3=Romans 6-23
TTITLE4=I'll Take My Saviour By The Hand
TTITLE5=I Cannot Take You Back Now
TTITLE6=Behind These Prison Walls Of Love
TTITLE7=Angel Mother
TTITLE8=Let's Not Sleep Again
TTITLE9=Don't Take The Light (From My Dark Cell)
TTITLE10=The Cross On The Hill
TTITLE11=The Sweetest Gift, A Mother's Smile
TTITLE12=You've Branded Your Name On My Heart
TTITLE13=Little Mother Of The Hills
TTITLE14=Alabama
TTITLE15=One Cold Winter's Eve
TTITLE16=Paper Boy
TTITLE17=Shake Hands With Your Mother Today
TTITLE18=When Heaven Comes Down
TTITLE19=The Unfinished Rug
TTITLE20=Tears On Her Bridal Bouquet
TTITLE21=The Lord Be With Us, Amen
TTITLE22=Drop Your Net
TTITLE23=The New Golden Rule
TTITLE24=Sunny Side Of Life
EXTD=
EXTT0=
EXTT1=
EXTT2=
EXTT3=
EXTT4=
EXTT5=
EXTT6=
EXTT7=
EXTT8=
EXTT9=
EXTT10=
EXTT11=
EXTT12=
EXTT13=
EXTT14=
EXTT15=
EXTT16=
EXTT17=
EXTT18=
EXTT19=
EXTT20=
EXTT21=
EXTT22=
EXTT23=
EXTT24=
PLAYORDER=
